<?xml version="1.0" encoding="UTF-8"?>
<svg xmlns="http://www.w3.org/2000/svg" xmlns:xlink="http://www.w3.org/1999/xlink" width="100.048" height="74.872" viewBox="0 0 100.048 74.872">
  <defs>
    <clipPath id="clip-path">
      <path id="Path_11" data-name="Path 11" d="M94.562,8.811C76.9,11.841,67.835,11.894,57.311,11.6c-3.748-.106-16.724-1.226-26.794.741-9.029,1.763-14.3,7.6-18.1,17.865C4.061,52.769,4.977,76.69,4.977,76.69a34.848,34.848,0,0,1,6.011-1.646c17.665-3.03,26.727-3.082,37.251-2.791,3.748.107,16.724,1.227,26.8-.741,9.027-1.764,14.3-7.6,18.1-17.865,8.352-22.56,7.437-46.483,7.437-46.483a35.027,35.027,0,0,1-6.012,1.646" transform="translate(-4.948 -7.165)" fill="rgba(0,0,0,0)"></path>
    </clipPath>
    <linearGradient id="linear-gradient" x1="0.046" y1="1.129" x2="0.049" y2="1.129" gradientUnits="objectBoundingBox">
      <stop offset="0" stop-color="#0a2966"></stop>
      <stop offset="0.172" stop-color="#043472"></stop>
      <stop offset="0.541" stop-color="#0060ac"></stop>
      <stop offset="0.768" stop-color="#005093"></stop>
      <stop offset="1" stop-color="#093472"></stop>
    </linearGradient>
    <clipPath id="clip-path-2">
      <path id="Path_12" data-name="Path 12" d="M90.718,3.948A35.372,35.372,0,0,0,95.646,2.7c.038,5.262-.3,25.651-7.4,44.82C84.364,58,79.163,63.16,70.848,64.783A76.437,76.437,0,0,1,56.535,65.92c-3.906,0-7.492-.182-9.864-.3-1-.052-1.818-.093-2.411-.11-2.052-.055-4.5-.112-7.08-.112-6.929,0-15.4.352-30.356,2.918A34.982,34.982,0,0,0,1.9,69.562C1.86,64.3,2.2,43.908,9.3,24.74c3.88-10.478,9.08-15.64,17.394-17.264A76.556,76.556,0,0,1,41.006,6.34c3.908,0,7.493.182,9.865.3,1,.05,1.818.093,2.411.109,2.052.056,4.5.115,7.08.115,6.929,0,15.4-.353,30.356-2.919M96.224.483a34.249,34.249,0,0,1-5.827,1.6C75.584,4.62,67.206,4.97,60.361,4.97c-2.559,0-4.989-.058-7.026-.114-.583-.016-1.386-.058-2.368-.107-2.39-.122-6.006-.305-9.962-.305a78.445,78.445,0,0,0-14.675,1.17C17.4,7.359,11.6,13.053,7.52,24.082-.8,46.558.017,70.69.025,70.93l.051,1.33,1.24-.483a34.258,34.258,0,0,1,5.828-1.6c14.814-2.541,23.191-2.892,30.036-2.892,2.037,0,4.139.034,7.028.114.581.017,1.384.059,2.365.108,2.391.122,6.007.306,9.961.306a78.54,78.54,0,0,0,14.677-1.171C80.138,64.9,85.94,59.208,90.022,48.18c8.321-22.478,7.5-46.608,7.5-46.849L97.465,0Z" transform="translate(0)" fill="rgba(0,0,0,0)"></path>
    </clipPath>
    <linearGradient id="linear-gradient-2" x1="0.057" y1="1.111" x2="0.06" y2="1.111" gradientUnits="objectBoundingBox">
      <stop offset="0" stop-color="#0062ae"></stop>
      <stop offset="0.44" stop-color="#0b2f6d"></stop>
      <stop offset="0.594" stop-color="#0b3371"></stop>
      <stop offset="1" stop-color="#0058a5"></stop>
    </linearGradient>
    <clipPath id="clip-path-3">
      <path id="Path_27" data-name="Path 27" d="M107,168.573c-15.77,1.192-20.814,8.437-22.332,10.862-.465.742-.652,2.125.634.528,1.929-2.393,6.4-7.768,22.168-8.551,12.686-.629,20.049.625,25.377,1.823l-.506-2.36a59.07,59.07,0,0,0-16.23-2.587c-2.608-.055-5.609.022-9.111.286" transform="translate(-84.322 -168.27)" fill="rgba(0,0,0,0)"></path>
    </clipPath>
    <linearGradient id="linear-gradient-3" x1="-2.286" y1="1.832" x2="-2.263" y2="1.832" gradientUnits="objectBoundingBox">
      <stop offset="0" stop-color="#94af0e"></stop>
      <stop offset="0.18" stop-color="#94af0e"></stop>
      <stop offset="0.253" stop-color="#96b012"></stop>
      <stop offset="0.339" stop-color="#9cb521"></stop>
      <stop offset="0.433" stop-color="#a7bd39"></stop>
      <stop offset="0.532" stop-color="#b6c85b"></stop>
      <stop offset="0.635" stop-color="#c9d686"></stop>
      <stop offset="0.741" stop-color="#e0e8bb"></stop>
      <stop offset="0.847" stop-color="#fcfcf8"></stop>
      <stop offset="0.858" stop-color="#fff"></stop>
      <stop offset="1" stop-color="#fff"></stop>
    </linearGradient>
  </defs>
  <g id="Group_276" data-name="Group 276" transform="translate(-79.348 -63.934)">
    <g id="Group_16" data-name="Group 16" transform="translate(79.348 63.934)">
      <path id="Path_9" data-name="Path 9" d="M23.057,97.546A35.094,35.094,0,0,1,29.068,95.9c17.664-3.029,26.726-3.081,37.251-2.79,3.747.105,16.724,1.226,26.794-.741,9.029-1.764,14.3-7.6,18.1-17.866,8.352-22.56,7.437-46.483,7.437-46.483l-2.276.959c-19.25,3.749-29.951,3.784-40.985,3.477-3.748-.106-16.725-1.226-26.794.742-9.03,1.762-14.3,7.6-18.1,17.864-8.353,22.56-7.437,46.483-7.437,46.483" transform="translate(-18.634 -22.674)" fill="#9db80b"></path>
      <path id="Path_10" data-name="Path 10" d="M23.057,97.546A35.094,35.094,0,0,1,29.068,95.9c17.664-3.029,26.726-3.081,37.251-2.79,3.747.105,16.724,1.226,26.794-.741,9.029-1.764,14.3-7.6,18.1-17.866,8.352-22.56,7.437-46.483,7.437-46.483a35,35,0,0,1-6.01,1.647C94.976,32.7,85.913,32.748,75.39,32.457c-3.748-.106-16.725-1.226-26.8.742-9.028,1.763-14.3,7.6-18.1,17.864-8.351,22.56-7.435,46.482-7.435,46.482" transform="translate(-18.634 -22.674)" fill="#9db80b"></path>
      <g id="Group_10" data-name="Group 10" transform="translate(0.944 1.367)">
        <g id="Group_9" data-name="Group 9" clip-path="url(#clip-path)">
          <rect id="Rectangle_3" data-name="Rectangle 3" width="119.136" height="108.925" transform="matrix(0.866, -0.5, 0.5, 0.866, -30.991, 17.381)" fill="url(#linear-gradient)"></rect>
        </g>
      </g>
      <g id="Group_12" data-name="Group 12" transform="translate(0)">
        <g id="Group_11" data-name="Group 11" clip-path="url(#clip-path-2)">
          <rect id="Rectangle_4" data-name="Rectangle 4" width="121.99" height="112.15" transform="translate(-32.089 18.065) rotate(-30)" fill="url(#linear-gradient-2)"></rect>
        </g>
      </g>
      <g id="Group_15" data-name="Group 15" transform="translate(16.089 12.666)">
        <path id="Path_13" data-name="Path 13" d="M347.51,215.993h-.255a2.431,2.431,0,0,1-1.416-.288c-1.055-.549-2.027-1.83-3.681-4.8l-.194-.381c.924-.413,1.236-.588,2.554-1.294,1.669-.91,2.488-1.671,2.606-2.4.11-.7-.546-1.165-1.754-1.163-.446,0-.607.034-1.608.125-.259,1.257-.524,1.519-2.5,2.75a12.766,12.766,0,0,1-3.33,1.588,3.423,3.423,0,0,0,.11-.5c.04-.264.738-2.589,1.005-3.669.178-.729.308-1.342.384-1.84.241-1.49-.5-2.215-2.219-2.209a9.3,9.3,0,0,0-2.3.3,21.949,21.949,0,0,1-.373,4.932c-.244,1.752-.937,4.66-1.1,5.51-.425,1.867-.662,3.152-.778,3.882-.213,1.343.51,1.982,2.291,1.976a8.225,8.225,0,0,0,2.007-.24,30.229,30.229,0,0,1,.66-5.956l.11-.7c.511.988.584,1.136,1.765,3.086,1.729,2.909,2.936,3.9,4.652,3.894a3.34,3.34,0,0,0,3.367-2.609" transform="translate(-285.245 -176.056)" fill="#002d79" fill-rule="evenodd"></path>
        <path id="Path_14" data-name="Path 14" d="M285.619,222.284a1.4,1.4,0,0,0-1.426-1.8c-1.335,0-2.7,1.175-4.348,3.777.116-.524.213-.934.251-1.166.285-1.812-.355-2.569-2.1-2.562a8.813,8.813,0,0,0-1.98.268,19.655,19.655,0,0,1-.3,5.9,17.587,17.587,0,0,1-.35,1.811c-.282,1.372-.477,2.4-.578,3.037-.227,1.432.409,2.013,2.284,2a7.485,7.485,0,0,0,1.784-.237,11.066,11.066,0,0,1,.134-4.057,7.922,7.922,0,0,1,1.754-4.239,4.1,4.1,0,0,1,2.747-1.495,1.993,1.993,0,0,1,1.442.518l.244-.526a6.049,6.049,0,0,0,.445-1.227" transform="translate(-238.408 -191.077)" fill="#002d79" fill-rule="evenodd"></path>
        <path id="Path_15" data-name="Path 15" d="M200.67,227.806a44.559,44.559,0,0,1,1.553-6.978,10.739,10.739,0,0,0-4.894-.975c-5.3.02-9.245,3.242-10.037,8.236-.53,3.327.888,5.189,3.971,5.178a7.631,7.631,0,0,0,5.115-2.031c.113,1.488.638,1.982,2.13,1.977a6.479,6.479,0,0,0,2.7-.564c-.776-1.514-.889-2.593-.534-4.842m-3.055-4.951a25.293,25.293,0,0,1-1.172,5.171c-.643,1.843-1.674,2.749-3.105,2.753-1.525.006-2.041-1.13-1.652-3.583.5-3.183,2.346-5.173,4.791-5.18a3.431,3.431,0,0,1,1.238.2Z" transform="translate(-167.556 -190.568)" fill="#002d79" fill-rule="evenodd"></path>
        <path id="Path_16" data-name="Path 16" d="M108.161,220.456a6.777,6.777,0,0,0-5.034,2.322c.236-1.489-.511-2.186-2.225-2.179a7.835,7.835,0,0,0-2.21.328c.314,2.012.248,3.032-.561,8.113-.392,2.481-.687,4.147-.952,5.2-.5,2.131-.8,3.417-.86,3.827-.237,1.486.514,2.156,2.358,2.148a12.423,12.423,0,0,0,2.091-.179,42.611,42.611,0,0,1,.644-6.25l.087-.553a6.621,6.621,0,0,0,2.627.458c3.97-.016,7.41-3.292,8.108-7.673.548-3.446-.988-5.568-4.072-5.558m-.419,6.039c-.491,3.1-2.1,5.029-4.2,5.035a4.087,4.087,0,0,1-1.746-.4l.08-.495c.079-.5.126-.993.194-1.432a20.5,20.5,0,0,1,.686-3.122c.538-1.783,1.921-3.1,3.29-3.1,1.428-.007,2.049,1.277,1.691,3.522" transform="translate(-93.996 -191.057)" fill="#002d79" fill-rule="evenodd"></path>
        <path id="Path_17" data-name="Path 17" d="M277.26,98.559c-4.488.015-7.717,2.648-8.4,6.806-.613,3.741,1.729,6.159,6,6.144,4.519-.016,7.751-2.649,8.449-6.921.615-3.767-1.684-6.046-6.047-6.03m1.55,6.494c-.481,2.928-1.608,4.382-3.424,4.39-1.908.006-2.569-1.413-2.066-4.482.463-2.849,1.619-4.273,3.5-4.282,1.813-.005,2.474,1.412,1.991,4.374" transform="translate(-233.573 -92.418)" fill="#002d79" fill-rule="evenodd"></path>
        <path id="Path_18" data-name="Path 18" d="M147.067,84.973a16.968,16.968,0,0,1-.326-4.629l.043-4.351c.007-1.981.025-3.264.053-3.824.2-3.738.184-4.043-.244-4.74a3.4,3.4,0,0,0-2.788-1.049,5.008,5.008,0,0,0-1.667.284c.15.447.194.559.314,1-.711,1.034-.883,1.312-2.058,3.242l-1.614,2.683L137.127,76.5l-1.481,2.822-.451.812-.176-.868c-.129-.779-.3-1.7-.505-2.757-.541-2.733-.6-3.122-.962-5.409-.352-2.313-.521-3.038-.925-3.677-.429-.668-1.3-1-2.67-1a5.325,5.325,0,0,0-2.136.426,3.691,3.691,0,0,1,.4,1.06c-.07.253-.128.391-.132.419-.122.362-.579,1.593-1.338,3.716l-1.257,3.406-1.293,3.24-1.27,3.1a10.134,10.134,0,0,0-.555,1.647c-.211,1.284.451,1.925,1.944,1.918a6.146,6.146,0,0,0,1.666-.257,7.176,7.176,0,0,1-.072-2.874,30.271,30.271,0,0,1,1.465-5.247l.946-2.682.532-1.509.309-.921c.083.475.119.836.177,1.058.033.2.159.976.413,2.343.236,1.283.5,2.759.826,5.075.383,2.508.573,3.287,1,3.954a2.919,2.919,0,0,0,2.517.969,5.126,5.126,0,0,0,2.515-.594c-.3-.5-.345-.614-.592-1.059l.283-.558,1.32-2.627c.414-.784,1.679-3.075,2.873-5.115.76-1.342,1.11-1.928,2.021-3.411l-.028.95-.071,2.371-.133,2.37-.06,2.121-.12,2.482c-.151,2.29.677,3.067,3.1,3.059a4.442,4.442,0,0,0,1.859-.286" transform="translate(-115.082 -66.379)" fill="#002d79" fill-rule="evenodd"></path>
        <path id="Path_19" data-name="Path 19" d="M140.919,99.332a12.033,12.033,0,0,1,.258,5.1,32.149,32.149,0,0,0-.145,4.007c.081,2.071,1.322,3.132,3.641,3.123a6.226,6.226,0,0,0,3.3-.88c-1.048,2.877-3.186,5.467-7.218,4.747-6.033-1.074-11.175-4.234-28.214-2.947-15.77,1.191-20.815,8.436-22.333,10.862-.463.74-.65,2.124.633.526,1.93-2.393,6.4-7.769,22.169-8.549,13.352-.666,20.81.762,26.2,2.008,3.656.843,8.809.567,12.172-5.627a37.664,37.664,0,0,0,3.675-10.037c.359-2.185-.135-2.717-2.549-2.707a7.609,7.609,0,0,0-1.669.177,10.723,10.723,0,0,1-.211,2.827,27.275,27.275,0,0,1-1.318,4.908c-.541,1.54-1.4,2.273-2.562,2.277-1.513,0-1.759-1.228-1.144-5.374.4-2.664.413-3.5-.063-4.145-.313-.448-1.047-.667-2.27-.665a6.738,6.738,0,0,0-2.347.372" transform="translate(-88.8 -92.739)" fill="#002d79"></path>
        <path id="Path_20" data-name="Path 20" d="M341.988,216.013h-.254a2.432,2.432,0,0,1-1.416-.288c-1.053-.55-2.024-1.831-3.681-4.8l-.2-.381c.922-.411,1.236-.588,2.555-1.292,1.67-.909,2.489-1.673,2.6-2.4.111-.7-.545-1.165-1.75-1.161-.446,0-.609.032-1.609.122-.26,1.257-.526,1.519-2.5,2.75a12.751,12.751,0,0,1-3.329,1.588,3.3,3.3,0,0,0,.11-.494c.043-.265.737-2.59,1.006-3.67.179-.732.308-1.343.385-1.84.239-1.489-.5-2.215-2.221-2.209a9.323,9.323,0,0,0-2.3.3,22.186,22.186,0,0,1-.371,4.934c-.246,1.751-.941,4.658-1.1,5.508-.425,1.868-.659,3.152-.776,3.882-.211,1.343.512,1.984,2.289,1.975a8.178,8.178,0,0,0,2.008-.239,30.526,30.526,0,0,1,.659-5.955l.112-.7c.51.989.582,1.135,1.763,3.085,1.73,2.913,2.936,3.9,4.653,3.894a3.336,3.336,0,0,0,3.367-2.609" transform="translate(-280.778 -176.073)" fill="#fff" fill-rule="evenodd"></path>
        <path id="Path_21" data-name="Path 21" d="M280.084,222.293a1.4,1.4,0,0,0-1.428-1.806c-1.332.006-2.694,1.178-4.346,3.781.115-.526.213-.934.248-1.167.288-1.81-.352-2.568-2.1-2.56a8.6,8.6,0,0,0-1.979.267,19.738,19.738,0,0,1-.3,5.9c-.1.612-.19,1.195-.351,1.808-.283,1.374-.476,2.394-.579,3.037-.226,1.431.412,2.014,2.285,2a7.4,7.4,0,0,0,1.786-.237,11,11,0,0,1,.135-4.058,7.92,7.92,0,0,1,1.752-4.236,4.121,4.121,0,0,1,2.747-1.5,2.005,2.005,0,0,1,1.442.518l.241-.524a6,6,0,0,0,.45-1.227" transform="translate(-233.926 -191.082)" fill="#fff" fill-rule="evenodd"></path>
        <path id="Path_22" data-name="Path 22" d="M195.136,227.822a44.3,44.3,0,0,1,1.556-6.979,10.778,10.778,0,0,0-4.895-.976c-5.306.02-9.246,3.244-10.039,8.237-.528,3.329.89,5.191,3.971,5.179a7.648,7.648,0,0,0,5.118-2.034c.11,1.49.638,1.984,2.13,1.978a6.474,6.474,0,0,0,2.694-.563c-.776-1.515-.889-2.593-.535-4.842m-3.054-4.95a25.286,25.286,0,0,1-1.169,5.169c-.643,1.842-1.674,2.749-3.105,2.754-1.526.007-2.043-1.13-1.654-3.585.5-3.181,2.346-5.172,4.792-5.18a3.437,3.437,0,0,1,1.236.2Z" transform="translate(-163.08 -190.581)" fill="#fff" fill-rule="evenodd"></path>
        <path id="Path_23" data-name="Path 23" d="M102.633,220.477A6.787,6.787,0,0,0,97.6,222.8c.237-1.488-.511-2.187-2.225-2.179a7.825,7.825,0,0,0-2.211.329c.314,2.012.248,3.032-.56,8.112-.391,2.482-.688,4.149-.95,5.2-.5,2.132-.8,3.417-.862,3.827-.238,1.488.515,2.157,2.358,2.148a12.312,12.312,0,0,0,2.09-.18,42.817,42.817,0,0,1,.644-6.248l.089-.556a6.572,6.572,0,0,0,2.626.458c3.971-.013,7.41-3.294,8.107-7.673.548-3.444-.985-5.569-4.069-5.557m-.421,6.041c-.49,3.095-2.1,5.028-4.2,5.034a4.138,4.138,0,0,1-1.748-.4l.081-.5c.079-.5.126-.994.2-1.432a20.412,20.412,0,0,1,.687-3.125c.538-1.782,1.921-3.1,3.285-3.1,1.43-.007,2.053,1.276,1.7,3.524" transform="translate(-89.52 -191.074)" fill="#fff" fill-rule="evenodd"></path>
        <path id="Path_24" data-name="Path 24" d="M271.723,98.57c-4.489.017-7.716,2.651-8.4,6.808-.611,3.741,1.731,6.16,6,6.146,4.519-.019,7.749-2.65,8.449-6.921.615-3.768-1.684-6.048-6.048-6.033m1.549,6.5c-.478,2.93-1.607,4.385-3.422,4.39-1.911.008-2.569-1.415-2.066-4.483.463-2.849,1.622-4.273,3.5-4.281,1.811-.006,2.473,1.414,1.988,4.374" transform="translate(-229.093 -92.427)" fill="#fff" fill-rule="evenodd"></path>
        <path id="Path_25" data-name="Path 25" d="M141.531,85a16.97,16.97,0,0,1-.324-4.631l.043-4.352c0-1.981.023-3.265.051-3.821.2-3.738.183-4.045-.242-4.742a3.4,3.4,0,0,0-2.787-1.047,4.894,4.894,0,0,0-1.671.284c.15.444.2.556.315,1-.711,1.034-.883,1.314-2.06,3.243l-1.614,2.683-1.651,2.908-1.48,2.821-.452.812-.178-.866q-.188-1.169-.5-2.758c-.539-2.732-.6-3.122-.96-5.409-.353-2.316-.523-3.038-.928-3.68-.431-.668-1.3-1-2.669-1a5.35,5.35,0,0,0-2.137.427,3.633,3.633,0,0,1,.4,1.057c-.073.254-.129.392-.133.42-.124.363-.578,1.593-1.337,3.716l-1.258,3.406-1.293,3.24-1.271,3.1a10.282,10.282,0,0,0-.557,1.648c-.21,1.284.449,1.923,1.947,1.918a6.136,6.136,0,0,0,1.663-.258,7.181,7.181,0,0,1-.071-2.874,30.178,30.178,0,0,1,1.463-5.248l.948-2.682.531-1.507.31-.921c.083.473.117.836.177,1.056.032.2.159.978.412,2.345.236,1.283.5,2.758.825,5.074.386,2.509.577,3.288,1.007,3.956a2.916,2.916,0,0,0,2.514.965,5.052,5.052,0,0,0,2.517-.593c-.3-.5-.346-.611-.59-1.057l.28-.559,1.322-2.629c.413-.782,1.679-3.073,2.869-5.115.762-1.341,1.114-1.927,2.023-3.408l-.026.948-.072,2.371-.131,2.37-.06,2.121-.121,2.483c-.15,2.291.678,3.067,3.1,3.059A4.471,4.471,0,0,0,141.531,85" transform="translate(-110.601 -66.401)" fill="#fff" fill-rule="evenodd"></path>
        <path id="Path_26" data-name="Path 26" d="M135.388,99.355a11.987,11.987,0,0,1,.256,5.1,32.107,32.107,0,0,0-.143,4c.079,2.074,1.321,3.134,3.641,3.127a6.26,6.26,0,0,0,3.3-.881c-1.05,2.875-3.19,5.466-7.219,4.749-6.034-1.077-11.177-4.235-28.215-2.949-15.77,1.192-20.814,8.436-22.332,10.861-.465.742-.652,2.125.634.528,1.929-2.392,6.4-7.769,22.168-8.551,13.352-.663,20.808.762,26.2,2.009,3.656.844,8.812.567,12.172-5.627a37.6,37.6,0,0,0,3.675-10.036c.358-2.186-.134-2.717-2.549-2.708a7.707,7.707,0,0,0-1.669.176,10.84,10.84,0,0,1-.208,2.828,27.686,27.686,0,0,1-1.32,4.907c-.542,1.542-1.4,2.274-2.562,2.277-1.513,0-1.762-1.227-1.145-5.375.405-2.662.414-3.5-.06-4.143-.314-.449-1.048-.67-2.272-.665a6.737,6.737,0,0,0-2.345.372" transform="translate(-84.322 -92.757)" fill="#fff"></path>
        <g id="Group_14" data-name="Group 14" transform="translate(0 19.442)">
          <g id="Group_13" data-name="Group 13" clip-path="url(#clip-path-3)">
            <rect id="Rectangle_5" data-name="Rectangle 5" width="16.337" height="49.276" transform="translate(-0.99 13.241) rotate(-85.957)" fill="url(#linear-gradient-3)"></rect>
          </g>
        </g>
      </g>
    </g>
  </g>
</svg>
